<?xml version="1.0" encoding="UTF-8"?>
<svg width="790px" height="474px" viewBox="0 0 790 474" version="1.1" xmlns="http://www.w3.org/2000/svg" xmlns:xlink="http://www.w3.org/1999/xlink">
    <!-- Generator: Sketch 59.1 (86144) - https://sketch.com -->
    <title>AWS logo</title>
    <desc>Created with Sketch.</desc>
    <g id="Page-1" stroke="none" stroke-width="1" fill="none" fill-rule="evenodd">
        <g id="AWS-logo">
            <path d="M238.277495,164.71438 C238.030714,172.293136 239.027395,179.861667 241.229864,187.133894 C243.499895,193.362849 246.306904,199.393226 249.620807,205.160395 C250.749726,206.88643 251.392813,208.871702 251.485461,210.916757 C251.153422,214.028129 249.301824,216.792144 246.51305,218.339434 L230.974267,228.943258 C228.963784,230.320092 226.591714,231.108432 224.137202,231.215506 C221.218354,231.113619 218.468472,229.855293 216.523198,227.731393 C212.913968,224.25025 209.780362,220.329842 207.199928,216.067186 C204.61013,211.825656 201.968537,206.776216 199.275148,200.918866 C180.832756,223.358147 152.781378,236.220507 123.290497,235.760002 C104.305001,236.774254 85.7033899,230.27435 71.7017351,217.733501 C58.7215615,204.861658 51.8488699,187.287907 52.7444192,169.258876 C51.9101026,149.626374 60.2537237,130.684275 75.4310432,117.754587 C93.4231714,103.941904 115.962124,96.994689 138.82928,98.2132536 C147.981633,98.2392083 157.1206,98.8972831 166.177539,100.182535 C175.707993,101.49539 185.601019,103.313188 195.856616,105.635931 L195.856616,87.1549797 C197.365614,72.6717893 192.95462,58.1927914 183.580977,46.8604475 C171.58855,37.8701164 156.520721,33.6964322 141.470873,35.1962409 C132.097591,35.2425418 122.762268,36.3610688 113.656451,38.5288713 C104.180249,40.73796 94.8836662,43.6239355 85.8420282,47.1634139 C82.9191292,48.4728696 79.9079683,49.5863335 76.8295337,50.4960444 L72.78945,50.4960444 C69.1637338,50.4960444 67.3508757,47.8703356 67.3508757,42.6189178 L67.3508757,30.6517448 C67.1286673,27.6114252 67.7740465,24.5704759 69.2155298,21.8657189 C71.1630881,19.5371986 73.6723122,17.7155815 76.518758,16.5638068 C86.9183309,11.7069063 97.8003418,7.9000052 108.994816,5.20256655 C122.141398,1.91183608 135.667445,0.282658009 149.240265,0.355104039 C173.652901,-1.75413933 197.935711,5.59253698 216.833973,20.8053365 C232.359549,37.736946 240.107046,60.1217388 238.277495,82.7619668 L238.277495,164.71438 Z M133.390706,203.03963 C142.50315,202.910329 151.532051,201.323918 160.117414,198.343651 C169.581272,195.148025 178.001667,189.553489 184.513304,182.134948 C188.525125,177.773458 191.496792,172.600254 193.215022,166.986628 C195.004029,159.850173 195.839682,152.518282 195.701228,145.173047 L195.701228,134.569222 C187.860933,132.737416 179.924498,131.321494 171.926889,130.327693 C163.887563,129.325038 155.791233,128.819084 147.686387,128.812861 C134.078703,127.818019 120.532351,131.400201 109.305591,138.962235 C101.093577,146.024962 96.5841408,156.319678 97.0299523,166.986628 C96.287469,176.767087 99.7167981,186.412914 106.50861,193.647672 C113.836205,200.131308 123.506705,203.509949 133.390706,203.03963 Z M340.833466,230.306607 C337.332732,230.618595 333.826926,229.764167 330.888645,227.882876 C328.137844,225.182051 326.248805,221.761992 325.45007,218.036468 L265.004202,23.2290678 C263.831402,19.9440485 263.049342,16.5386273 262.673385,13.0796931 C262.406215,11.3657599 262.99088,9.63009411 264.248325,8.40424649 C265.50577,7.17839888 267.286175,6.60842554 269.044286,6.86888179 L294.372503,6.86888179 C297.924883,6.52164644 301.491564,7.37753735 304.472713,9.29261305 C307.043888,12.0757324 308.813133,15.4730385 309.600511,19.1390213 L352.953717,185.770545 L393.199167,19.1390213 C393.820487,15.462223 395.614756,12.0698711 398.326965,9.44409625 C401.441618,7.57041635 405.090945,6.72083428 408.73795,7.020365 L429.55992,7.020365 C433.206926,6.72083428 436.856252,7.57041635 439.970905,9.44409625 C442.655276,12.1306783 444.396243,15.5781546 444.943316,19.2905045 L485.499541,188.042793 L530.251238,19.2905045 C531.076129,15.6063955 532.900732,12.2058381 535.534424,9.44409625 C538.515573,7.52902056 542.082254,6.67312964 545.634633,7.020365 L569.56436,7.020365 C571.322472,6.75990874 573.102876,7.32988208 574.360321,8.5557297 C575.617766,9.78157731 576.202431,11.5172431 575.935261,13.2311763 C576.064285,14.5410181 576.064285,15.8598979 575.935261,17.1697396 C575.438971,19.2738124 574.816348,21.3476535 574.070607,23.380551 L511.915473,218.187951 C511.116738,221.913475 509.2277,225.333535 506.476899,228.034359 C503.538618,229.91565 500.032812,230.770078 496.532077,230.45809 L473.845453,230.45809 C470.171452,230.833408 466.48047,229.920423 463.434468,227.882876 C460.76891,225.063442 459.036191,221.526724 458.462058,217.733501 L418.216608,55.4949901 L378.437322,217.582018 C377.863189,221.375241 376.13047,224.911959 373.464912,227.731393 C370.41891,229.76894 366.727928,230.681925 363.053927,230.306607 L340.833466,230.306607 Z M672.741883,236.971868 C659.353536,236.993407 646.006739,235.519458 632.962597,232.578855 C622.588148,230.542857 612.549581,227.127841 603.128133,222.429481 C597.334166,220.037484 593.591793,214.47527 593.648817,208.341543 L593.648817,195.616953 C593.648817,190.365536 595.61772,187.739827 599.554212,187.739827 C601.202282,187.763694 602.833049,188.071394 604.371235,188.648726 L610.897524,191.223941 C620.017836,195.158189 629.553608,198.104511 639.333498,200.009966 C649.558462,202.057684 659.972636,203.072932 670.411065,203.03963 C683.552378,203.798836 696.645158,200.909914 708.170309,194.708054 C716.736493,189.745736 721.856206,180.634144 721.533663,170.925191 C721.712481,164.39102 719.193311,158.06034 714.541211,153.35314 C706.697769,146.945375 697.446333,142.38406 687.503727,140.022618 L650.055259,128.509894 C634.286266,124.238444 620.239859,115.356209 609.809809,103.060716 C601.48018,92.6208211 596.943612,79.7793781 596.912619,66.553264 C596.695907,56.7771 599.106536,47.1157648 603.905072,38.5288713 C608.548435,30.4513847 614.841816,23.3881263 622.396224,17.7756725 C630.316566,11.9047263 639.268119,7.49008504 648.812156,4.74811694 C659.366683,1.77899325 670.303186,0.299620382 681.288214,0.35359951 C687.106503,0.350108052 692.919279,0.704277464 698.691651,1.41548646 C704.596389,2.12240808 710.190351,3.0818017 715.473538,4.29366733 C720.756724,5.50553296 725.677339,6.81838739 730.235382,8.23223063 C733.987467,9.37945474 737.62751,10.8495786 741.11253,12.6252435 C744.055451,14.171963 746.645738,16.2848832 748.726534,18.8360549 C750.369427,21.3110732 751.183831,24.2221827 751.057352,27.1676311 L751.057352,39.1348042 C751.057352,44.3862219 749.089106,47.0119307 745.152614,47.0119307 C741.669149,46.6326551 738.292949,45.6041045 735.207793,43.9822667 C719.528223,37.3422925 702.576798,34.0371995 685.483685,34.2873416 C673.594488,33.6848233 661.751743,36.1401282 651.142974,41.4070522 C643.038036,46.0220876 638.29004,54.6935514 638.867335,63.8265663 C638.710679,70.5642027 641.475061,77.0540048 646.481339,81.7015844 C654.857165,88.2327527 664.54401,92.9802698 674.917313,95.6380391 L711.588842,106.393347 C727.117796,110.328076 741.048074,118.782696 751.523515,130.630659 C759.739143,141.026278 764.020501,153.868663 763.643767,166.986628 C763.78072,177.123286 761.436914,187.145734 756.806702,196.222886 C752.281592,204.894351 745.864058,212.494946 738.004774,218.490917 C729.43816,224.940987 719.678501,229.72391 709.258024,232.578855 C697.365974,235.747286 685.067287,237.226859 672.741883,236.971868 Z" id="Shape" fill="#FFFFFF" fill-rule="nonzero"></path>
            <path d="M704.679621,378.779352 C619.384228,440.918609 495.573364,473.987767 389.850737,473.987767 C247.210023,474.914313 109.37719,423.176329 3.44856942,328.944899 C-4.50401755,321.869638 2.51297096,312.179605 12.1808218,317.562956 C129.691003,383.866831 262.737801,418.703853 398.11519,418.616153 C499.213942,418.080434 599.209705,397.851775 692.360908,359.091667 C706.706751,353.093076 718.869531,368.47408 704.679621,378.779352 Z" id="Path" fill="#FF9900"></path>
            <path d="M747.518935,331.89674 C735.703104,316.501717 669.365651,324.712396 639.657276,328.304568 C630.711003,329.330903 629.191825,321.462336 637.294109,315.646438 C690.127755,278.014161 776.889715,288.790676 786.848773,301.448806 C796.807831,314.106936 784.148012,402.200677 734.690318,444.280405 C727.094427,450.780526 719.83613,447.35941 723.212082,438.806619 C734.352723,410.411355 759.334766,347.291763 747.518935,331.89674 Z" id="Path" fill="#FF9900"></path>
        </g>
    </g>
</svg>