<?xml version="1.0" encoding="UTF-8"?>
<svg width="28px" height="51px" viewBox="0 0 28 51" version="1.1" xmlns="http://www.w3.org/2000/svg" xmlns:xlink="http://www.w3.org/1999/xlink">
    <g id="Page-1" stroke="none" stroke-width="1" fill="none" fill-rule="evenodd">
        <g id="MyFleet_SidePanel" transform="translate(-86.000000, -1264.000000)">
            <g id="Notification" transform="translate(40.000000, 1240.000000)">
                <g id="icon_Thermometer" transform="translate(48.000000, 26.000000)">
                    <path d="M12,0 C15.8659932,-7.10171439e-16 19,3.13400675 19,7 L19.0008275,25.2526901 C22.0284965,27.4310987 24,30.9853147 24,35 C24,41.627417 18.627417,47 12,47 C5.372583,47 0,41.627417 0,35 C0,30.9848752 1.97193517,27.4303206 5.00016685,25.2519747 L5,7 C5,3.13400675 8.13400675,7.10171439e-16 12,0 Z" id="Combined-Shape" stroke="#FFFFFF" stroke-width="3"></path>
                    <circle id="Oval" fill="#FFFFFF" cx="12" cy="35" r="8"></circle>
                    <rect id="Rectangle" fill="#FFFFFF" x="9" y="4" width="6" height="30" rx="3"></rect>
                    <rect id="Rectangle" fill="#FFFFFF" x="19" y="6" width="5" height="3"></rect>
                    <rect id="Rectangle" fill="#FFFFFF" x="19" y="16" width="5" height="3"></rect>
                    <rect id="Rectangle" fill="#FFFFFF" x="19" y="11" width="5" height="3"></rect>
                </g>
            </g>
        </g>
    </g>
</svg>